<?xml version="1.0" standalone="no"?><!DOCTYPE svg PUBLIC "-//W3C//DTD SVG 1.1//EN"
        "http://www.w3.org/Graphics/SVG/1.1/DTD/svg11.dtd">
<svg t="1499827575468" class="icon" style="" viewBox="0 0 1024 1024" version="1.1" xmlns="http://www.w3.org/2000/svg"
     p-id="5645" xmlns:xlink="http://www.w3.org/1999/xlink" width="16" height="16">
    <defs>
        <style type="text/css"/>
    </defs>
    <path d="M550.782788 555.726634c-10.335677 10.335677-24.127246 16.063498-38.814787 16.063498s-28.447111-5.695822-38.814787-16.063498l-17.855442-17.855442-141.147589 120.412237 391.02778 0-138.683666-118.300303L550.782788 555.726634z"
          p-id="5646"/>
    <path d="M294.150808 376.660229c-0.95997 2.271929-1.567951 4.703853-1.567951 7.35977l0 244.664354 136.795725-116.764351L294.150808 376.660229z"
          p-id="5647"/>
    <path d="M524.927596 529.807444l164.090872-164.090872-354.068935 0 164.122871 164.090872C505.984188 536.719228 518.015812 536.719228 524.927596 529.807444z"
          p-id="5648"/>
    <path d="M512 0.031999c-282.775163 0-511.984 229.208837-511.984 511.984 0 282.775163 229.208837 511.984 511.984 511.984s511.984-229.208837 511.984-511.984C1023.984 229.240836 794.743164 0.031999 512 0.031999zM767.992 640.012c0 30.239055-24.607231 54.846286-54.846286 54.846286l-402.259429 0c-30.239055 0-54.846286-24.607231-54.846286-54.846286l0-255.992c0-30.239055 24.607231-54.846286 54.846286-54.846286l402.259429 0c30.239055 0 54.846286 24.607231 54.846286 54.846286L767.992 640.012z"
          p-id="5649"/>
    <path d="M592.445486 514.031937l138.971657 118.588294 0-248.600231c0-2.623918-0.607981-5.11984-1.59995-7.35977L592.445486 514.031937z"
          p-id="5650"/>
</svg>